<?xml version="1.0" standalone="no"?><!DOCTYPE svg PUBLIC "-//W3C//DTD SVG 1.1//EN" "http://www.w3.org/Graphics/SVG/1.1/DTD/svg11.dtd"><svg viewBox="0 0 177 31" alt="Udacity" version="1.1" xmlns="http://www.w3.org/2000/svg" xmlns:xlink="http://www.w3.org/1999/xlink" style="height:auto;width:auto;perspective-origin:50% 50%;transform-origin:50% 50%;">
  <g fill="none" fill-rule="evenodd" style="height:auto;max-width:none;overflow-x:visible;overflow-y:visible;width:auto;perspective-origin:50% 50%;transform-origin:0px 0px;fill:none;fill-rule:evenodd;">
    <path id="wordmark" fill="#2E3D49" d="M58 17.6c0 2.6-2.1 4.5-5 4.5s-5-1.9-5-4.5V8h-2v9.7c0 3.4 2.9 6.3 7 6.3s7-3 7-6.3V8h-2v9.6zM74.4 8H69v16h5.4c4.5 0 7.6-3.1 7.6-8 0-4.8-3.1-8-7.6-8zm-.2 14H71V10h3.2c3.4 0 5.8 2.3 5.8 6 0 4-2.5 5.9-5.8 6zm43.8.3c-3.6 0-6-2.7-6-6.3 0-3.6 2.5-6.2 6-6.2 2.8 0 4.5 1.6 4.5 1.6l.8-1.4s-1.8-1.9-5.5-1.9c-4.8 0-7.8 3.6-7.8 7.9 0 4.4 3.1 8.1 8 8.1 3.8 0 5.7-2.6 5.7-2.6l-1.1-1.2c-.1-.1-1.6 2-4.6 2zM133 8h2v16h-2zm11 2h5v14h2V10h5V8h-12zm30.8-2l-4.8 7.3-4.9-7.3H163l6 8.9V24h2v-7.1l5.9-8.9zM94.9 8l-6.2 16h2l1.7-4.6 6.5-1.4 2.2 6h2L97 8h-2.1zM93 17.5l3-7.4h.1l2.5 6.3-5.6 1.1z" style="height:auto;max-width:none;overflow-x:visible;overflow-y:visible;width:auto;perspective-origin:50% 50%;transform-origin:0px 0px;fill:rgb(255, 255, 255);fill-rule:evenodd;d:path('M 58 17.6 c 0 2.6 -2.1 4.5 -5 4.5 s -5 -1.9 -5 -4.5 V 8 h -2 v 9.7 c 0 3.4 2.9 6.3 7 6.3 s 7 -3 7 -6.3 V 8 h -2 v 9.6 Z M 74.4 8 H 69 v 16 h 5.4 c 4.5 0 7.6 -3.1 7.6 -8 c 0 -4.8 -3.1 -8 -7.6 -8 Z m -0.2 14 H 71 V 10 h 3.2 c 3.4 0 5.8 2.3 5.8 6 c 0 4 -2.5 5.9 -5.8 6 Z m 43.8 0.3 c -3.6 0 -6 -2.7 -6 -6.3 c 0 -3.6 2.5 -6.2 6 -6.2 c 2.8 0 4.5 1.6 4.5 1.6 l 0.8 -1.4 s -1.8 -1.9 -5.5 -1.9 c -4.8 0 -7.8 3.6 -7.8 7.9 c 0 4.4 3.1 8.1 8 8.1 c 3.8 0 5.7 -2.6 5.7 -2.6 l -1.1 -1.2 c -0.1 -0.1 -1.6 2 -4.6 2 Z M 133 8 h 2 v 16 h -2 Z m 11 2 h 5 v 14 h 2 V 10 h 5 V 8 h -12 Z m 30.8 -2 l -4.8 7.3 l -4.9 -7.3 H 163 l 6 8.9 V 24 h 2 v -7.1 l 5.9 -8.9 Z M 94.9 8 l -6.2 16 h 2 l 1.7 -4.6 l 6.5 -1.4 l 2.2 6 h 2 L 97 8 h -2.1 Z M 93 17.5 l 3 -7.4 h 0.1 l 2.5 6.3 l -5.6 1.1 Z');"/>
    <path id="mark" fill="#02B3E4" d="M29 .1l-9 4.7v14.9c0 .6 0 1.3-.2 1.9-.1.6-.3 1.2-.5 1.7-.1.1-.1.3-.2.4-.3 0-2.5-.7-3.5-1.4-.4-.3-.8-.6-1.2-1-.4-.4-.7-.8-1-1.2-.3-.4-.6-.9-.8-1.4-.2-.5-.4-1-.5-1.6-.1-.5-.1-1.1-.1-1.6V1.2L10 0 0 5.9v13.7C0 25.9 5.1 31 11.3 31c2.1 0 4-.5 5.7-1.5l8.4-4.8c3.3-1.7 5.6-5.2 5.6-9.1V1.3L29 .1zM17.9 26.2c-.9.9-1.6 1.4-2.6 1.9-.6.2-1.3.5-1.9.7-.6.1-1.2.2-1.8.2-.6 0-1.6-.1-2.2-.2-.6-.1-1.2-.3-1.7-.5s-1.1-.5-1.6-.9c-1.3-.9-1.9-1.7-2.5-2.5-.3-.5-.6-1-.9-1.6-.2-.6-.4-1.1-.5-1.7-.2-.7-.2-1.4-.2-2V7.1l8-4.7v13.1c0 5 3.7 9.1 8.4 10.1-.2.2-.3.4-.5.6zm11-9c-.1.5-.3 1-.5 1.5s-.6 1.2-1 1.7c-.6.7-1.2 1.2-2.7 2.1-1.3.7-2.4.9-3.1 1.1.5-1.2.5-2.5.5-3.9L22 6l7-3.7v13.3c0 .5 0 1.1-.1 1.6z" style="height:auto;max-width:none;overflow-x:visible;overflow-y:visible;width:auto;perspective-origin:50% 50%;transform-origin:0px 0px;fill:rgb(2, 179, 228);fill-rule:evenodd;d:path('M 29 0.1 l -9 4.7 v 14.9 c 0 0.6 0 1.3 -0.2 1.9 c -0.1 0.6 -0.3 1.2 -0.5 1.7 c -0.1 0.1 -0.1 0.3 -0.2 0.4 c -0.3 0 -2.5 -0.7 -3.5 -1.4 c -0.4 -0.3 -0.8 -0.6 -1.2 -1 c -0.4 -0.4 -0.7 -0.8 -1 -1.2 c -0.3 -0.4 -0.6 -0.9 -0.8 -1.4 c -0.2 -0.5 -0.4 -1 -0.5 -1.6 c -0.1 -0.5 -0.1 -1.1 -0.1 -1.6 V 1.2 L 10 0 L 0 5.9 v 13.7 C 0 25.9 5.1 31 11.3 31 c 2.1 0 4 -0.5 5.7 -1.5 l 8.4 -4.8 c 3.3 -1.7 5.6 -5.2 5.6 -9.1 V 1.3 L 29 0.1 Z M 17.9 26.2 c -0.9 0.9 -1.6 1.4 -2.6 1.9 c -0.6 0.2 -1.3 0.5 -1.9 0.7 c -0.6 0.1 -1.2 0.2 -1.8 0.2 c -0.6 0 -1.6 -0.1 -2.2 -0.2 c -0.6 -0.1 -1.2 -0.3 -1.7 -0.5 s -1.1 -0.5 -1.6 -0.9 c -1.3 -0.9 -1.9 -1.7 -2.5 -2.5 c -0.3 -0.5 -0.6 -1 -0.9 -1.6 c -0.2 -0.6 -0.4 -1.1 -0.5 -1.7 c -0.2 -0.7 -0.2 -1.4 -0.2 -2 V 7.1 l 8 -4.7 v 13.1 c 0 5 3.7 9.1 8.4 10.1 c -0.2 0.2 -0.3 0.4 -0.5 0.6 Z m 11 -9 c -0.1 0.5 -0.3 1 -0.5 1.5 s -0.6 1.2 -1 1.7 c -0.6 0.7 -1.2 1.2 -2.7 2.1 c -1.3 0.7 -2.4 0.9 -3.1 1.1 c 0.5 -1.2 0.5 -2.5 0.5 -3.9 L 22 6 l 7 -3.7 v 13.3 c 0 0.5 0 1.1 -0.1 1.6 Z');"/>
  </g>
</svg>